<?xml version="1.0" encoding="UTF-8"?>
<svg version="1.2" baseProfile="tiny-ps" xmlns="http://www.w3.org/2000/svg" viewBox="0 0 512 512" width="512" height="512">
  <title>0nekey</title>
  <rect width="512" height="512" fill="#4CD964"/>
  <g transform="translate(0,512) scale(0.1,-0.1)" fill="#000000">
    <path d="M2051 3855 c-34 -102 -59 -190 -56 -195 4 -6 81 -10 195 -10 l190 0 2 -397 3 -398 220 0 220 0 3 593 2 592 -358 0 -359 0 -62 -185z"/>
    <path d="M2465 2703 c-183 -33 -314 -101 -444 -232 -165 -166 -240 -346 -241 -576 0 -250 114 -480 321 -647 64 -51 210 -122 299 -144 109 -27 297 -25 405 5 170 47 321 146 426 278 256 322 237 774 -44 1069 -126 133 -267 210 -450 245 -117 22 -161 22 -272 2z"/>
    <path d="M2693 2325 c134 -35 238 -119 298 -241 30 -59 34 -79 37 -166 4 -84 1 -108 -18 -161 -43 -117 -125 -207 -238 -260 -62 -29 -75 -31 -177 -32 -104 0 -114 2 -177 33 -246 120 -332 404 -192 634 55 90 145 156 259 189 75 22 135 23 208 4z" fill="#4CD964"/>
  </g>
</svg>
