<?xml version="1.0" encoding="UTF-8"?>
<svg version="1.2" baseProfile="tiny-ps" xmlns="http://www.w3.org/2000/svg" viewBox="0 0 512 512" width="512" height="512">
  <title>0nekey</title>
  <rect width="512" height="512" fill="#43d72e"/>
  <g transform="translate(0,512) scale(0.1,-0.1)" fill="#000000">
    <path d="M2116 4022 c-16 -25 -114 -348 -108 -354 4 -4 91 -9 192 -10 l185 -3 5 -395 5 -395 210 0 210 0 3 583 2 582 -349 0 c-193 0 -352 -3 -355 -8z"/>
    <path d="M2480 2699 c-85 -12 -222 -62 -302 -109 -94 -56 -220 -183 -276 -279 -126 -214 -147 -481 -57 -710 69 -176 213 -335 382 -421 216 -111 483 -119 696 -21 179 82 312 211 397 385 57 115 80 216 80 347 0 233 -73 413 -235 575 -182 184 -436 270 -685 233z"/>
    <path d="M2692 2334 c215 -55 348 -224 348 -442 0 -215 -159 -400 -373 -433 -256 -40 -497 147 -514 399 -10 142 31 255 128 354 58 59 160 117 209 119 14 0 34 4 45 9 32 14 88 11 157 -6z" fill="#43d72e"/>
  </g>
</svg>
